<svg width="64" height="64" viewBox="0 0 64 64" fill="none" xmlns="http://www.w3.org/2000/svg">
<path d="M17.2811 47.7656C17.221 47.7246 17.1588 47.6903 17.1429 47.6893C17.1271 47.6883 17.092 47.6682 17.0648 47.6446C17.0378 47.6209 16.9381 47.5608 16.8436 47.5109C16.7491 47.4609 16.6123 47.3819 16.5396 47.3351C16.4668 47.2883 16.4008 47.25 16.3927 47.25C16.3846 47.25 16.3175 47.2113 16.2436 47.1641C16.0696 47.0528 16.0299 47.0289 15.7508 46.8686C15.6223 46.7948 15.4676 46.7058 15.407 46.6709C15.2901 46.6034 15.0851 46.4792 14.9831 46.4139C14.9493 46.3923 14.9006 46.365 14.8749 46.3533C14.8491 46.3415 14.7045 46.2573 14.5534 46.1659C14.4024 46.0747 14.2731 46 14.2659 46C14.2588 46 14.1905 45.9578 14.1141 45.9063C14.0377 45.8547 13.9643 45.8125 13.9509 45.8125C13.9376 45.8125 13.9045 45.7933 13.8774 45.7696C13.8503 45.7461 13.7436 45.6805 13.6405 45.6239C13.2435 45.406 12.9514 45.2382 12.7186 45.0943C12.6929 45.0783 12.5733 45.0086 12.453 44.9394C12.3327 44.8703 12.1639 44.7716 12.078 44.7203C11.9921 44.6689 11.8655 44.5968 11.7968 44.5598C11.728 44.5229 11.6506 44.4751 11.6249 44.4535C11.5991 44.4319 11.4936 44.3683 11.3905 44.3121C11.2874 44.2558 11.1327 44.1641 11.0468 44.1083C10.9608 44.0524 10.8202 43.9697 10.7343 43.9246C10.6483 43.8794 10.5006 43.79 10.4061 43.7259L10.2343 43.6094L10.2264 37.7485L10.2185 31.8876L10.3569 31.8001C10.4329 31.752 10.5275 31.6705 10.5671 31.6189C10.6066 31.5674 10.7025 31.4908 10.7803 31.4487C10.9866 31.3371 11.3166 31.1483 11.4064 31.0906C11.4493 31.0631 11.6016 30.9716 11.7449 30.8874C11.8883 30.8033 12.0429 30.7121 12.0887 30.6848C12.1344 30.6576 12.2561 30.5889 12.3593 30.5321C12.4624 30.4754 12.6073 30.3888 12.6811 30.3396C12.7551 30.2903 12.8216 30.25 12.8291 30.25C12.8366 30.25 12.9097 30.2091 12.9916 30.1591C13.0735 30.1091 13.2179 30.0244 13.3124 29.9709C13.5587 29.8317 13.9138 29.6273 13.9686 29.5931C13.9944 29.5771 14.1491 29.4859 14.3124 29.3906C14.4757 29.2953 14.6304 29.2035 14.6561 29.1866C14.6819 29.1697 14.7241 29.1465 14.7499 29.1351C14.7955 29.1148 15.3123 28.8112 15.4061 28.7494C15.4319 28.7324 15.4811 28.7049 15.5155 28.6883C15.5499 28.6717 15.6483 28.6157 15.7343 28.5639C15.8202 28.5122 15.9186 28.4569 15.953 28.4411C15.9874 28.4254 16.0688 28.3759 16.1341 28.3313C16.1993 28.2866 16.2593 28.25 16.2675 28.25C16.2757 28.25 16.3418 28.2117 16.4146 28.1649C16.4873 28.1181 16.5749 28.0643 16.6093 28.0455C16.6436 28.0266 16.7491 27.968 16.8436 27.9153C16.9381 27.8625 17.0929 27.777 17.1874 27.7252C17.2819 27.6734 17.3766 27.5981 17.3979 27.5577C17.4246 27.5071 17.4366 27.2998 17.4369 26.8864L17.4374 26.2884L17.5233 26.2317C17.5706 26.2004 17.7006 26.1239 17.8124 26.0615C18.1989 25.8456 18.2225 25.8318 18.7436 25.5144C18.7728 25.4967 18.8671 25.4438 18.953 25.397C19.0389 25.3502 19.1369 25.2945 19.1706 25.2731C19.3413 25.1653 19.4995 25.0726 19.6405 24.9982C19.7264 24.9528 19.8881 24.86 19.9999 24.7918C20.1116 24.7236 20.2241 24.658 20.2499 24.646C20.2757 24.634 20.3671 24.5819 20.453 24.5303C20.6666 24.4019 21.0264 24.1943 21.2634 24.0625C21.3718 24.0024 21.4798 23.9373 21.5035 23.9178C21.5273 23.8984 21.603 23.8526 21.6718 23.8159C21.7405 23.7793 21.8244 23.7319 21.8581 23.7106C22.0604 23.5828 22.181 23.5122 22.2499 23.4813C22.2929 23.462 22.4939 23.3459 22.6966 23.2231C22.8993 23.1004 23.0709 23 23.078 23C23.0851 23 23.2547 22.901 23.4549 22.7801C23.6553 22.6591 23.8879 22.5253 23.972 22.4827C24.0561 22.4401 24.127 22.3878 24.1296 22.3666C24.1323 22.3454 24.1314 20.8164 24.1279 18.9688C24.1243 17.1211 24.1327 15.5949 24.1465 15.5771C24.1604 15.5594 24.3616 15.4338 24.5936 15.2982C24.8256 15.1626 25.1632 14.9645 25.3436 14.8582C25.5241 14.7518 25.8166 14.582 25.9934 14.4809C26.1704 14.3797 26.3813 14.2579 26.4622 14.2104C26.5431 14.1628 26.7122 14.0644 26.8379 13.9916C26.9637 13.9189 27.0903 13.8448 27.1192 13.827C27.1481 13.8091 27.2421 13.7561 27.328 13.7091C27.4139 13.6619 27.5264 13.5978 27.578 13.5664C27.6296 13.5351 27.9601 13.344 28.3124 13.1418C28.6647 12.9397 28.9741 12.7583 28.9999 12.7388C29.0257 12.7191 29.0749 12.6882 29.1093 12.6699C29.1903 12.6269 29.8406 12.2574 29.9206 12.209C29.9543 12.1886 30.0386 12.1371 30.1081 12.0946C30.1774 12.0522 30.3116 11.9766 30.4061 11.9266C30.5006 11.8767 30.5991 11.8194 30.6249 11.7992C30.6507 11.7791 30.7491 11.7226 30.8436 11.6736C30.9381 11.6247 31.0366 11.5689 31.0624 11.5498C31.1433 11.4896 31.3049 11.4062 31.3407 11.4062C31.3656 11.4062 31.3728 13.6596 31.3671 19.57L31.3593 27.7338L31.1093 27.8819C30.9718 27.9634 30.8311 28.043 30.7968 28.0588C30.7624 28.0746 30.6809 28.1241 30.6157 28.1688C30.5505 28.2134 30.4913 28.25 30.4843 28.25C30.4772 28.25 30.3085 28.3484 30.1093 28.4688C29.91 28.5891 29.7399 28.6875 29.7311 28.6875C29.7224 28.6875 29.6184 28.7508 29.4999 28.8281C29.3814 28.9055 29.2774 28.9688 29.2688 28.9688C29.2601 28.9688 29.0538 29.0888 28.8103 29.2356C28.5668 29.3824 28.3164 29.5302 28.2539 29.5641C28.1315 29.6306 28.0873 29.6573 27.8811 29.7891C27.8073 29.8364 27.74 29.875 27.7318 29.875C27.7181 29.875 27.2056 30.1767 27.0936 30.2507C27.0678 30.2678 27.0257 30.2911 26.9999 30.3026C26.9741 30.3141 26.8968 30.3593 26.828 30.4029C26.7593 30.4466 26.6608 30.506 26.6093 30.535C26.5577 30.564 26.3959 30.6591 26.2499 30.7461C26.1038 30.8333 25.921 30.9405 25.8436 30.9844C25.7663 31.0284 25.6327 31.1064 25.5468 31.1578C25.4608 31.2091 25.2921 31.308 25.1718 31.3776C25.0514 31.4471 24.8892 31.5418 24.8113 31.5879C24.2628 31.9129 24.2629 31.9128 24.1506 31.8622C24.0935 31.8364 23.9764 31.7729 23.8905 31.7211C23.8046 31.6693 23.6836 31.5991 23.6218 31.5652C23.5599 31.5313 23.2743 31.3621 22.9871 31.1893C22.7 31.0164 22.4596 30.875 22.4528 30.875C22.4461 30.875 22.378 30.8328 22.3016 30.7813C22.2252 30.7297 22.1544 30.6875 22.1444 30.6875C22.1343 30.6875 22.0341 30.6313 21.9218 30.5625C21.8094 30.4938 21.7114 30.4375 21.7041 30.4375C21.6966 30.4375 21.63 30.3989 21.5561 30.3516C21.3821 30.2403 21.3624 30.2285 20.9374 29.9844C20.7397 29.8708 20.5569 29.7649 20.5311 29.7489C20.2766 29.5913 19.5861 29.1875 19.5711 29.1875C19.5604 29.1875 19.5295 29.1681 19.5023 29.1443C19.4753 29.1206 19.3686 29.0563 19.2655 29.0015C19.1624 28.9467 18.9584 28.8313 18.8124 28.7452C18.6663 28.6589 18.4694 28.5454 18.3749 28.4927C18.2804 28.44 18.1327 28.3523 18.0468 28.2978C17.7736 28.1248 17.5271 27.9988 17.4974 28.0171C17.48 28.0279 17.4686 31.9408 17.4686 37.9393C17.4686 45.843 17.4607 47.8434 17.4296 47.8419C17.4081 47.8409 17.3413 47.8066 17.2811 47.7656Z" fill="white" stroke="white"/>
<path d="M32.6354 56.6895C32.5677 56.6592 32.4509 56.5957 32.376 56.5483C32.301 56.501 32.1682 56.4247 32.0808 56.3788C31.9376 56.3034 31.7808 56.2118 31.6081 56.1027C31.5744 56.0813 31.4765 56.0256 31.3906 55.9788C31.3046 55.932 31.2103 55.8791 31.1808 55.8614C31.1514 55.8436 30.8701 55.6753 30.5558 55.4876C30.2415 55.2998 29.9116 55.0994 29.8228 55.0423C29.7339 54.9851 29.6525 54.9383 29.6418 54.9383C29.6311 54.9383 29.5843 54.9122 29.5378 54.8801C29.4912 54.8482 29.2632 54.7124 29.0312 54.5784C28.7992 54.4444 28.5601 54.3041 28.4999 54.2666C28.4083 54.2094 27.3553 53.5844 27.1834 53.4852C27.1536 53.468 27.0196 53.3906 26.8858 53.3133C26.7519 53.236 26.5927 53.1441 26.5321 53.1092C26.4348 53.0531 26.3143 52.9804 26.1081 52.8538C26.0545 52.8208 25.9136 52.7393 25.4696 52.4844C25.4089 52.4496 25.3242 52.3989 25.2812 52.3719C25.2382 52.3448 25.0343 52.2236 24.8281 52.1026C24.6218 51.9816 24.4038 51.8533 24.3437 51.8174C24.2836 51.7816 24.1711 51.7164 24.0937 51.6725C24.0163 51.6286 23.8828 51.5507 23.7968 51.4993C23.7109 51.4479 23.5377 51.3464 23.4121 51.2737C23.2864 51.2009 23.1528 51.1229 23.1152 51.1003C23.0776 51.0776 22.9808 51.0213 22.9 50.9753C22.8193 50.9292 22.5667 50.7789 22.3388 50.6414C22.1108 50.5039 21.9004 50.3774 21.871 50.3602C21.6588 50.236 21.4252 50.1009 21.2656 50.0103C21.1624 49.9518 20.9585 49.8331 20.8124 49.7466C20.6664 49.6601 20.4694 49.5461 20.3749 49.4933C20.2804 49.4404 20.1506 49.3643 20.0865 49.324C20.0224 49.2838 19.9621 49.2508 19.9524 49.2508C19.9428 49.2508 19.8968 49.2244 19.8503 49.1921C19.8037 49.1598 19.6531 49.0679 19.5156 48.9878C19.3781 48.9078 19.2093 48.8034 19.1406 48.7559L19.0156 48.6697L19.0076 44.3356L18.9998 40.0014L19.1212 39.9152C19.2674 39.8115 19.4959 39.6721 19.6874 39.5696C19.7648 39.5283 19.8773 39.4629 19.9374 39.4244C20.0474 39.3538 20.3771 39.1613 20.6093 39.0321C20.7669 38.9443 21.3024 38.6316 21.4062 38.5668C21.4492 38.5399 21.5476 38.4843 21.6249 38.4431C21.7023 38.4019 21.8781 38.301 22.0156 38.2188C22.1531 38.1366 22.3429 38.0256 22.4374 37.972C22.6903 37.8287 23.0399 37.6273 23.0937 37.5941C23.2798 37.479 23.5663 37.3133 23.5793 37.3133C23.5878 37.3133 23.6486 37.2794 23.7142 37.238C23.7798 37.1966 23.9448 37.1031 24.0808 37.0302C24.2168 36.9573 24.3458 36.8839 24.3674 36.867C24.3891 36.8502 24.4603 36.8066 24.5257 36.7701C24.6504 36.7006 25.5254 36.1961 25.6181 36.1403C25.6476 36.1225 25.7421 36.0696 25.8281 36.0228C25.914 35.9761 26.0054 35.9242 26.0312 35.9077C26.1694 35.819 26.5035 35.6258 26.5186 35.6258C26.5283 35.6258 26.6089 35.5788 26.6978 35.5213C26.9128 35.3822 27.0408 35.3069 27.2656 35.1871C27.3687 35.1321 27.4741 35.0706 27.4999 35.0503C27.5258 35.03 27.6242 34.9734 27.7187 34.9244C27.8132 34.8755 27.9128 34.8164 27.9399 34.7931C27.9671 34.7698 27.999 34.7508 28.0109 34.7508C28.0228 34.7508 28.0861 34.7169 28.1517 34.6755C28.2173 34.6341 28.3823 34.5406 28.5183 34.4678C28.6543 34.3949 28.7866 34.3191 28.8124 34.2994C28.8383 34.2796 28.9296 34.2264 29.0156 34.1811C29.1015 34.1358 29.2914 34.0284 29.4374 33.9426C29.5835 33.8567 29.7874 33.7416 29.8906 33.6868C29.9937 33.632 30.0991 33.5706 30.1249 33.5503C30.1508 33.53 30.2492 33.4734 30.3437 33.4244C30.4382 33.3755 30.5366 33.3193 30.5624 33.2994C30.5883 33.2796 30.6867 33.2234 30.7812 33.1744C30.8757 33.1255 30.9741 33.0693 30.9999 33.0494C31.0258 33.0296 31.1242 32.9734 31.2187 32.9244C31.3132 32.8755 31.4128 32.8164 31.4399 32.7931C31.4671 32.7698 31.499 32.7508 31.5109 32.7508C31.5228 32.7508 31.5861 32.7169 31.6517 32.6755C31.7173 32.6341 31.8823 32.5406 32.0183 32.4678C32.1543 32.3949 32.2878 32.3163 32.3149 32.2931C32.342 32.2698 32.374 32.2508 32.3858 32.2508C32.3978 32.2508 32.4669 32.2126 32.5396 32.1658C32.6123 32.1189 32.7491 32.0399 32.8437 31.9899C32.9383 31.94 33.0366 31.8828 33.0624 31.8626C33.0883 31.8424 33.1866 31.7859 33.2812 31.7369C33.3758 31.688 33.4741 31.6311 33.4999 31.6104C33.5258 31.5898 33.5679 31.5641 33.5937 31.5534C33.6195 31.5428 33.7109 31.4916 33.7968 31.4397C33.8828 31.3878 33.9741 31.3357 33.9999 31.3238C34.0258 31.3119 34.0961 31.2718 34.1562 31.2346C34.2163 31.1974 34.3429 31.1237 34.4374 31.0709C34.532 31.0181 34.7289 30.9044 34.8749 30.8181C35.021 30.732 35.2249 30.6166 35.3281 30.5618C35.4312 30.507 35.5366 30.4456 35.5624 30.4253C35.5883 30.405 35.6866 30.3484 35.7812 30.2994C35.8758 30.2505 35.9741 30.1949 35.9999 30.1759C36.0258 30.1569 36.0749 30.1266 36.1093 30.1084C36.1796 30.0713 37.2631 29.4541 37.3581 29.397C37.5859 29.2603 37.6733 29.2106 37.8933 29.0928C38.0293 29.0199 38.1628 28.9413 38.1899 28.9181C38.217 28.8948 38.2482 28.8758 38.2591 28.8758C38.2701 28.8758 38.4065 28.7984 38.5624 28.7039C38.7184 28.6094 38.8522 28.5321 38.8599 28.5321C38.8676 28.5321 38.962 28.4784 39.0697 28.4128C39.1774 28.3473 39.2866 28.2839 39.3124 28.272C39.3383 28.26 39.4015 28.2245 39.4531 28.1929C39.5655 28.1242 40.4886 27.5883 40.6874 27.4763C40.7648 27.4328 40.8805 27.3643 40.9446 27.324C41.0088 27.2837 41.0688 27.2508 41.0781 27.2508C41.0874 27.2508 41.1474 27.2179 41.2115 27.1776C41.484 27.0065 41.7076 26.8958 41.7711 26.9008C41.8126 26.9039 41.8697 26.8695 41.9178 26.8124C42.0487 26.6568 42.1124 26.6508 42.352 26.771C42.4683 26.8294 42.6549 26.9331 42.7666 27.0014C42.8784 27.0699 42.9763 27.1258 42.9843 27.1258C42.9963 27.1258 43.1486 27.2138 43.4687 27.4057C43.4945 27.4212 43.7617 27.5743 44.0624 27.7459C44.3632 27.9176 44.6539 28.0839 44.7085 28.1154C44.7631 28.1469 44.9806 28.2711 45.1919 28.3914C45.4032 28.5118 45.6005 28.6243 45.6303 28.6414C45.6601 28.6586 45.8569 28.7711 46.0678 28.8914C46.2786 29.0118 46.4755 29.1243 46.5053 29.1414C46.5727 29.1804 47.3061 29.5988 47.3814 29.6414C47.9608 29.9689 48.5886 30.3321 48.6249 30.3608C48.6508 30.3813 48.7491 30.438 48.8437 30.4869C48.9383 30.5359 49.0366 30.5925 49.0624 30.6128C49.0883 30.6331 49.1937 30.6948 49.2968 30.7499C49.3999 30.8051 49.5616 30.8969 49.6562 30.9539C49.7508 31.011 49.9105 31.1023 50.0114 31.1568C50.1771 31.2464 50.5374 31.4564 50.6562 31.5327C50.682 31.5492 50.7734 31.601 50.8593 31.6478C50.9453 31.6946 51.0382 31.7475 51.0659 31.7653C51.0936 31.7831 51.192 31.8384 51.2847 31.888C51.3773 31.9377 51.5836 32.0538 51.7433 32.1459C51.9028 32.2379 52.0423 32.3133 52.0533 32.3133C52.0643 32.3133 52.0954 32.3323 52.1225 32.3556C52.1496 32.3789 52.2491 32.438 52.3437 32.4869C52.4383 32.5359 52.5366 32.5921 52.5624 32.6119C52.5883 32.6318 52.6866 32.688 52.7812 32.7369C52.8758 32.7859 52.9741 32.8425 52.9999 32.8628C53.0258 32.8831 53.1312 32.9448 53.2343 32.9999C53.533 33.1594 53.8174 33.322 53.9603 33.4149C54.033 33.4621 54.0981 33.5008 54.1049 33.5008C54.1407 33.5008 54.4859 33.7269 54.5066 33.7639C54.5199 33.7877 54.5311 36.1099 54.5314 38.9244L54.5319 44.0417L54.43 44.1056C54.3206 44.1743 54.238 44.2228 53.8741 44.4319C53.6246 44.5753 53.6006 44.5894 53.3596 44.7377C53.1888 44.8428 52.7806 45.0817 52.6562 45.1494C52.6132 45.1728 52.5078 45.2336 52.4218 45.2844C52.3359 45.3353 52.1671 45.4338 52.0468 45.5032C51.9265 45.5726 51.7859 45.6546 51.7343 45.6851C51.6828 45.7158 51.4529 45.8495 51.2236 45.9823C50.9943 46.1151 50.7163 46.2791 50.6058 46.3467C50.4954 46.4143 50.399 46.4696 50.3916 46.4696C50.3843 46.4696 50.1799 46.5891 49.9374 46.7352C49.695 46.8813 49.4901 47.0008 49.4821 47.0008C49.4741 47.0008 49.408 47.039 49.3353 47.0858C49.2626 47.1324 49.1609 47.1939 49.1093 47.2224C49.0578 47.2509 48.9663 47.3038 48.9062 47.3399C48.8461 47.376 48.7335 47.4412 48.6562 47.4847C48.5789 47.5283 48.4945 47.5774 48.4687 47.5941C48.3749 47.6546 47.8581 47.9583 47.8124 47.9797C47.7866 47.9918 47.6953 48.0439 47.6093 48.0955C47.5234 48.1472 47.3546 48.2463 47.2343 48.3158C47.114 48.3854 46.9453 48.4838 46.8593 48.5346C46.7734 48.5854 46.6046 48.6841 46.4843 48.754C46.364 48.8238 46.1883 48.928 46.0937 48.9854C45.9991 49.0427 45.8867 49.1093 45.8437 49.1333C45.5399 49.3031 44.9134 49.6715 44.8749 49.703C44.8491 49.7241 44.807 49.75 44.7812 49.7607C44.7554 49.7713 44.664 49.8224 44.5781 49.8743C44.4921 49.9261 44.3937 49.9814 44.3593 49.9972C44.3249 50.0129 44.2476 50.0588 44.1874 50.0993C44.1273 50.1396 44.0008 50.2134 43.9062 50.2632C43.8116 50.313 43.7121 50.3728 43.685 50.396C43.6579 50.4193 43.6247 50.4383 43.6114 50.4383C43.598 50.4383 43.5246 50.4805 43.4483 50.5321C43.3718 50.5836 43.3036 50.6258 43.2966 50.6258C43.2896 50.6258 43.2095 50.67 43.1185 50.724C43.0275 50.7779 42.8898 50.8576 42.8124 50.9011C42.7351 50.9444 42.6296 51.0054 42.5781 51.0365C42.5265 51.0676 42.421 51.1287 42.3437 51.1722C42.2664 51.2158 42.1754 51.2688 42.1418 51.2902C41.9582 51.4063 41.8099 51.493 41.6562 51.5742C41.5616 51.6241 41.4633 51.6814 41.4374 51.7016C41.4116 51.7217 41.3133 51.7783 41.2187 51.8273C41.1241 51.8763 41.0291 51.9302 41.0074 51.9471C40.9858 51.9639 40.9151 52.0075 40.8503 52.044C40.6631 52.1493 40.2713 52.375 40.2043 52.4163C39.9464 52.5748 39.8702 52.6192 39.7187 52.6992C39.6241 52.7491 39.5258 52.8073 39.4999 52.8283C39.4741 52.8494 39.3758 52.9074 39.2812 52.9572C39.1866 53.0069 39.0601 53.0808 38.9999 53.1211C38.9398 53.1616 38.8624 53.2078 38.8281 53.2238C38.7937 53.2399 38.6883 53.3005 38.5937 53.3584C38.4991 53.4164 38.3374 53.509 38.2343 53.5642C38.1312 53.6193 38.0246 53.6839 37.8173 53.8097C37.7716 53.842 37.5937 53.9496 37.4218 54.0489C37.2499 54.1481 37.0671 54.2544 37.0156 54.2853C36.964 54.316 36.8867 54.3605 36.8437 54.3841C36.6371 54.4976 35.9172 54.9187 35.8824 54.9464C35.8608 54.9636 35.7901 55.0075 35.7253 55.044C35.5381 55.1493 35.1463 55.375 35.0793 55.4163C34.7563 55.6148 34.7724 55.6053 34.506 55.7539C34.3397 55.8466 34.2994 55.8708 34.1334 55.978C34.0606 56.0249 33.9945 56.0633 33.9864 56.0633C33.9782 56.0633 33.8086 56.1618 33.6093 56.2821C33.4101 56.4024 33.2393 56.5008 33.2296 56.5008C33.22 56.5008 33.1531 56.5407 33.0809 56.5894C32.8674 56.7335 32.7783 56.7535 32.6354 56.6895ZM39.4312 50.8071C39.4599 50.7783 39.4687 49.9095 39.4687 47.0868V43.4041L39.3879 43.3293C39.3434 43.2881 39.2556 43.2274 39.1926 43.1943C38.9577 43.0711 38.6086 42.8671 37.3808 42.1356C37.0833 41.9584 36.8313 41.8133 36.8208 41.8133C36.8103 41.8133 36.7795 41.7939 36.7524 41.7703C36.7128 41.7357 36.0745 41.3584 35.7968 41.2055C35.7364 41.1723 35.5471 41.0576 35.4206 40.9777C35.3869 40.9564 35.3035 40.9088 35.2353 40.872C35.1671 40.8352 35.0757 40.7808 35.0321 40.7511C34.9886 40.7213 34.7632 40.5873 34.5312 40.453C34.2992 40.3188 34.0366 40.1622 33.9478 40.1049C33.8589 40.0477 33.7766 40.0008 33.7648 40.0008C33.753 40.0008 33.6809 39.9586 33.6045 39.9071C33.5281 39.8555 33.4599 39.8133 33.4529 39.8133C33.4459 39.8133 33.2773 39.7149 33.0781 39.5946C32.8788 39.4743 32.7102 39.3758 32.7033 39.3758C32.6963 39.3758 32.6281 39.3336 32.5516 39.2821C32.4753 39.2305 32.4049 39.1883 32.3954 39.1883C32.3859 39.1883 32.3176 39.1496 32.2437 39.1024C32.0371 38.9703 31.9932 38.9438 31.8695 38.8767C31.8063 38.8424 31.5913 38.7158 31.3915 38.5951C31.1918 38.4745 31.0225 38.3758 31.0153 38.3758C31.0081 38.3758 30.8786 38.3011 30.7276 38.2098C30.5766 38.1184 30.3757 38.0026 30.2812 37.9525C30.1867 37.9024 30.0742 37.8386 30.0312 37.8106C29.9685 37.7698 28.9625 37.1728 28.7459 37.0477C28.7161 37.0305 28.5821 36.9531 28.4483 36.8758C28.3144 36.7985 28.1552 36.7066 28.0946 36.6717C28.0339 36.6367 27.9248 36.5699 27.8521 36.5233C27.7794 36.4765 27.7133 36.4383 27.7053 36.4383C27.6972 36.4383 27.6301 36.3996 27.5562 36.3524C27.3796 36.2395 27.3345 36.2125 27.0937 36.0758C26.5745 35.7812 26.5614 35.7753 26.5139 35.8146C26.4749 35.8471 26.4687 36.3623 26.4687 39.5768C26.4687 42.5091 26.477 43.3119 26.5078 43.351C26.5293 43.3783 26.7367 43.5098 26.9687 43.6433C27.2007 43.7766 27.4328 43.9108 27.4843 43.9414C27.5711 43.993 27.7946 44.1211 28.0644 44.2739C28.1666 44.3318 28.6371 44.6049 29.2656 44.9711C29.4031 45.0512 29.59 45.1609 29.681 45.215C29.772 45.2691 29.8526 45.3133 29.8601 45.3133C29.8713 45.3133 30.0978 45.4445 30.3437 45.5935C30.4194 45.6394 31.2819 46.1354 31.4117 46.2076C31.4771 46.2441 31.5483 46.2877 31.5699 46.3046C31.5916 46.3214 31.6867 46.376 31.7812 46.4259C31.8757 46.4756 32.0023 46.5495 32.0624 46.5899C32.1226 46.6303 32.1999 46.6765 32.2343 46.6926C32.2687 46.7087 32.3741 46.7694 32.4687 46.8274C32.5633 46.8856 32.739 46.9903 32.8593 47.0601C32.9796 47.13 33.1484 47.2288 33.2343 47.2796C33.3203 47.3303 33.489 47.4288 33.6093 47.4983C33.7296 47.5678 33.8984 47.6663 33.9843 47.7171C34.1778 47.8313 34.5221 48.0304 34.7499 48.1595C34.8445 48.2131 35.0343 48.3238 35.1718 48.4056C35.3093 48.4873 35.4851 48.5874 35.5624 48.6281C35.6398 48.6688 35.7241 48.7182 35.7499 48.738C35.7758 48.7578 35.8804 48.8199 35.9825 48.8761C36.2047 48.9981 37.164 49.5484 37.2968 49.63C37.3484 49.6616 37.4187 49.7014 37.4531 49.7183C37.4874 49.7352 37.5816 49.7881 37.6623 49.8359C37.743 49.8836 38.0166 50.0423 38.2702 50.1883C38.5238 50.3344 38.7953 50.4922 38.8734 50.539C38.9516 50.5858 39.0814 50.6593 39.1618 50.7024C39.2422 50.7456 39.3169 50.7953 39.3277 50.8127C39.3536 50.8547 39.3853 50.8529 39.4312 50.8071ZM41.8749 41.8545C42.1586 41.6838 42.4116 41.5343 42.4374 41.5221C42.4633 41.5099 42.5546 41.4578 42.6406 41.4061C42.7265 41.3544 42.8953 41.2556 43.0156 41.1864C43.1359 41.1172 43.2554 41.0475 43.2812 41.0316C43.4673 40.9165 43.7538 40.7508 43.7668 40.7508C43.7754 40.7508 43.8419 40.7126 43.9146 40.6658C43.9873 40.6189 44.1241 40.5399 44.2187 40.4899C44.3133 40.44 44.4116 40.3815 44.4374 40.3599C44.4633 40.3383 44.5406 40.2902 44.6093 40.253C44.8923 40.0999 45.1942 39.9234 45.4543 39.7589C45.4879 39.7376 45.5789 39.6847 45.6562 39.6414C45.7335 39.5982 45.8179 39.5496 45.8437 39.5335C45.8695 39.5174 45.9961 39.4455 46.1249 39.3737C46.2538 39.3019 46.3769 39.2211 46.3984 39.1941C46.429 39.1558 46.4374 38.5523 46.4374 36.4158C46.4374 34.0519 46.4313 33.684 46.3918 33.6688C46.3668 33.6592 46.2296 33.7216 46.0871 33.8073C45.6535 34.0682 45.6111 34.0933 45.5624 34.1159C45.5366 34.1279 45.396 34.2096 45.2499 34.2977C45.1039 34.3858 44.9633 34.4676 44.9374 34.4797C44.9116 34.4918 44.8203 34.5439 44.7343 34.5955C44.6484 34.6472 44.4796 34.7463 44.3593 34.8158C44.239 34.8854 44.0703 34.9839 43.9843 35.0349C43.8984 35.0859 43.7999 35.1414 43.7656 35.1585C43.7312 35.1754 43.6328 35.2317 43.5468 35.2835C43.4609 35.3353 43.3624 35.3912 43.3281 35.4079C43.2628 35.4395 43.2277 35.4608 43.0062 35.6024C42.9323 35.6496 42.8668 35.6883 42.8605 35.6883C42.8443 35.6883 42.2373 36.0333 41.4959 36.4638C41.4164 36.5099 41.3285 36.5669 41.3006 36.5906C41.2546 36.6295 41.2499 36.886 41.2499 39.3901C41.2499 40.9062 41.2598 42.1564 41.2718 42.1684C41.3023 42.1991 41.3017 42.1994 41.8749 41.8545Z" fill="white" stroke="white"/>
<path d="M10.2188 22.0284C10.2188 22.0284 10.2187 14.3069 10.3834 14.1886C10.3966 14.1879 10.4669 14.1492 10.5397 14.1026C10.6124 14.0559 10.7215 13.9891 10.7821 13.9542C10.8428 13.9192 10.9974 13.8302 11.1259 13.7564C11.405 13.596 11.4447 13.5722 11.6187 13.4609C11.6927 13.4137 11.7598 13.375 11.7678 13.375C11.7759 13.375 11.8419 13.3367 11.9147 13.2901C11.9874 13.2434 12.0961 13.1787 12.1562 13.1462C12.2801 13.0796 12.6564 12.8571 12.9832 12.6573C13.0526 12.6148 13.1656 12.5509 13.2344 12.5152C13.3527 12.4538 13.6033 12.3073 14.5469 11.7476C14.7703 11.6151 15.0094 11.4754 15.0781 11.4373C15.3037 11.3121 15.9513 10.9296 16.0378 10.8704C16.0844 10.8386 16.1292 10.8125 16.1376 10.8125C16.1459 10.8125 16.3876 10.6711 16.6747 10.4983C16.9619 10.3254 17.2475 10.1563 17.3094 10.1223C17.3713 10.0883 17.4922 10.0186 17.5781 9.96725C17.6641 9.91594 17.8328 9.817 17.9531 9.74744C18.0734 9.67794 18.2422 9.5795 18.3281 9.52869C18.4141 9.47794 18.5828 9.37956 18.7031 9.31013C18.9971 9.14038 19.0854 9.08875 19.4687 8.86175C20.0407 8.52306 20.3858 8.32212 20.5469 8.23381C20.6328 8.18669 20.7242 8.13113 20.75 8.11038C20.7758 8.08956 20.9516 7.985 21.1406 7.87806C21.5452 7.64913 21.5684 7.63556 21.7437 7.52344C21.8176 7.47619 21.8838 7.4375 21.8908 7.4375C21.8977 7.4375 22.0664 7.33906 22.2656 7.21875C22.4649 7.09844 22.6336 7 22.6406 7C22.6477 7 22.8164 6.90156 23.0156 6.78125C23.2149 6.66094 23.3837 6.5625 23.3909 6.5625C23.3981 6.5625 23.5316 6.48519 23.6875 6.39062C23.8434 6.29606 23.9845 6.21875 24.0011 6.21875C24.0202 6.21875 24.0317 7.28244 24.0323 9.13281C24.0329 10.7356 24.0407 12.8135 24.0495 13.7505L24.0656 15.4541L23.9781 15.5366C23.93 15.5819 23.7641 15.6917 23.6094 15.7805C23.3149 15.9495 23.2839 15.9678 23.0793 16.0927C23.0099 16.1351 22.9109 16.1931 22.8594 16.2216C22.8078 16.2501 22.7164 16.3029 22.6562 16.3391C22.5961 16.3752 22.4836 16.4406 22.4062 16.4844C22.3289 16.5283 22.2094 16.5976 22.1406 16.6388C21.8003 16.8421 21.1429 17.2261 20.6925 17.4844C20.3909 17.6574 19.779 18.021 19.7122 18.0669C19.6656 18.0988 19.6202 18.125 19.6111 18.125C19.6021 18.125 19.5277 18.1659 19.4457 18.2159C19.3639 18.2659 19.2195 18.3506 19.125 18.4041C18.8712 18.5476 18.5244 18.7474 18.4543 18.7904C18.2136 18.9384 18.1201 18.9926 17.9687 19.0718C17.8742 19.1212 17.7746 19.1816 17.7476 19.2058C17.7204 19.2301 17.6837 19.25 17.6662 19.25C17.6486 19.25 17.5969 19.2844 17.5514 19.3266L17.4687 19.4032V22.4468C17.4687 25.3061 17.4654 25.4932 17.4141 25.5389C17.384 25.5657 17.2635 25.6417 17.1463 25.7078C17.0292 25.774 16.9097 25.8427 16.8807 25.8606C16.8517 25.8783 16.7578 25.9312 16.6719 25.978C16.5859 26.0248 16.4946 26.0766 16.4687 26.0931C16.3627 26.1612 16.0033 26.3714 15.8281 26.4678C15.725 26.5245 15.5801 26.6112 15.5063 26.6604C15.4323 26.7097 15.3657 26.75 15.3583 26.75C15.3509 26.75 15.2529 26.8062 15.1406 26.875C15.0283 26.9438 14.9293 27 14.9207 27C14.9121 27 14.8456 27.0382 14.7728 27.0849C14.7001 27.1316 14.5774 27.2034 14.5 27.2444C14.4226 27.2853 14.3102 27.3503 14.25 27.3887C14.119 27.4724 13.4494 27.8666 13.2462 27.9797C13.1667 28.0239 12.9363 28.1591 12.7342 28.2801C12.5321 28.401 12.3622 28.5 12.3567 28.5C12.3511 28.5 12.1807 28.6002 11.978 28.7227C11.5919 28.956 10.8963 29.3616 10.6562 29.4934C10.5789 29.5359 10.4934 29.5899 10.4663 29.6134C10.3994 29.6373 10.2562 29.7436 10.2462 29.75C10.2306 29.75 10.2188 26.4371 10.2188 22.0284Z" fill="white" stroke="white"/>
</svg>
